PathFileType	4	(X/Y/Z)	C:\Users\Basilio\Documents\Thesis Gigler\squatting_fais\c3dfiles\075\SJ_pre3\markers_experimental.trc
DataRate	CameraRate	NumFrames	NumMarkers	Units	OrigDataRate	OrigDataStartFrame	OrigNumFrames
200.000000	200.000000	4	61	mm	200.000000	1248	1664
Frame#	Time	FHD			LBHD			RBHD			C7			T10			CLAV			LSHO			LUUPA			LMUPA			LDUPA			LLEP			LMEP			LRAD			LUL			LRFIN			RSHO			RUPA1			RMUPA			RDUPA			RLEP			RMEP			RRAD			RUL			RUFIN			LASI			RASI			USACR			LSACR			RSACR			LTHI1			LTHI2			LTHI3			LTHI4			LLFC			LMFC			LTIB1			LTIB2			LTIB3			LTIB4			LLMAL			LMMAL			LHEE			LMT1			LMT2			LMT5			RTHI			RTHI2			RTHI3			RTHI4			RLFC			RMFC			RTIB1			RTIB2			RTIB3			RTIB4			RLMAL			RMMAL			RHEE			RMT1			RMT2			RMT5			
		X1	Y1	Z1	X2	Y2	Z2	X3	Y3	Z3	X4	Y4	Z4	X5	Y5	Z5	X6	Y6	Z6	X7	Y7	Z7	X8	Y8	Z8	X9	Y9	Z9	X10	Y10	Z10	X11	Y11	Z11	X12	Y12	Z12	X13	Y13	Z13	X14	Y14	Z14	X15	Y15	Z15	X16	Y16	Z16	X17	Y17	Z17	X18	Y18	Z18	X19	Y19	Z19	X20	Y20	Z20	X21	Y21	Z21	X22	Y22	Z22	X23	Y23	Z23	X24	Y24	Z24	X25	Y25	Z25	X26	Y26	Z26	X27	Y27	Z27	X28	Y28	Z28	X29	Y29	Z29	X30	Y30	Z30	X31	Y31	Z31	X32	Y32	Z32	X33	Y33	Z33	X34	Y34	Z34	X35	Y35	Z35	X36	Y36	Z36	X37	Y37	Z37	X38	Y38	Z38	X39	Y39	Z39	X40	Y40	Z40	X41	Y41	Z41	X42	Y42	Z42	X43	Y43	Z43	X44	Y44	Z44	X45	Y45	Z45	X46	Y46	Z46	X47	Y47	Z47	X48	Y48	Z48	X49	Y49	Z49	X50	Y50	Z50	X51	Y51	Z51	X52	Y52	Z52	X53	Y53	Z53	X54	Y54	Z54	X55	Y55	Z55	X56	Y56	Z56	X57	Y57	Z57	X58	Y58	Z58	X59	Y59	Z59	X60	Y60	Z60	X61	Y61	Z61	

1249	6.24	-285.2892150878907	1699.238647460938	-949.0403442382815	-430.2163391113282	1569.97705078125	-998.8049926757815	-369.1035156250001	1602.25927734375	-850.1356201171877	-455.8178710937501	1464.039428710938	-948.9228515625002	-494.6280517578126	1139.41357421875	-941.7210083007815	-317.1031799316407	1392.438354492188	-951.441101074219	-360.3150024414063	1428.949584960938	-1110.9306640625	-424.9949035644532	1282.299438476563	-1270.41357421875	-391.5046691894532	1245.096557617188	-1264.3115234375	-426.8672180175782	1223.62744140625	-1309.03662109375	-426.2555541992189	1139.745971679688	-1335.162719726563	-502.1475830078126	1131.189331054688	-1281.6240234375	-389.1188049316407	961.1599121093752	-1164.360961914063	-350.1288757324219	924.7986450195315	-1218.258056640625	-342.4299011230469	951.736999511719	-1124.450317382813	-350.0456237792969	1432.616455078125	-790.0689697265627	-408.9390258789064	1289.680786132813	-628.3674316406251	-381.7926940917969	1247.688598632813	-632.7503051757814	-419.3704833984376	1231.878540039063	-587.8816528320314	-422.9138488769532	1163.676635742188	-561.1972656250001	-498.3055419921876	1139.857055664063	-592.2572021484376	-343.7369384765626	939.3098754882815	-670.7288818359376	-386.8965454101564	963.7220458984377	-729.1971435546876	-326.3706054687501	960.7252197265627	-765.0772705078126	-333.4614868164063	953.9038085937502	-1070.620239257813	-324.6609497070313	964.901306152344	-818.9580688476565	-486.9918212890626	1036.1376953125	-943.3838500976565	-494.370330810547	1003.466613769531	-969.5849609375002	-492.6523742675782	1006.183898925781	-912.7703247070315	-385.1761169433595	722.2365112304689	-1142.609741210938	-354.9837341308594	643.4851074218751	-1141.553100585938	-307.2685241699219	648.5803222656251	-1125.144653320313	-381.9804382324219	590.0367431640626	-1132.8369140625	-384.6914672851564	482.4700012207032	-1123.986572265625	-346.0041503906251	469.7297363281251	-1007.169616699219	-331.6215820312501	357.7906494140626	-1098.433349609375	-391.8240661621095	319.5564575195313	-1148.518432617188	-351.3500061035157	312.6571350097657	-1130.174560546875	-356.1896057128907	231.5930328369141	-1105.849243164063	-436.6630859375001	92.15467071533205	-1125.235473632813	-398.8085021972657	101.6046524047852	-1047.033935546875	-481.3522338867189	45.26741790771485	-1077.386474609375	-269.9528198242188	58.6952362060547	-1087.181396484375	-276.5520629882813	65.16925048828126	-1135.67529296875	-321.5395202636719	45.55927658081055	-1181.35205078125	-389.9423217773439	779.1281738281252	-733.4114379882814	-350.6111145019532	727.1469116210939	-731.3753051757814	-319.5395202636719	732.7819824218751	-742.5072631835939	-376.0582275390626	645.4059448242189	-731.6534423828126	-382.5288696289063	490.842742919922	-749.2526245117189	-339.5000610351563	471.011444091797	-867.7410888671877	-329.6169128417969	338.4131164550782	-790.0167236328127	-385.7877807617189	267.4377441406251	-727.9931640625001	-346.8345336914063	259.2718200683594	-754.8307495117189	-353.7940368652344	210.5884552001954	-787.5803833007815	-427.5807189941407	92.21681976318361	-742.9273071289064	-384.1632385253907	109.1210098266602	-820.7521972656252	-461.3027648925782	45.49486541748048	-805.2536621093752	-258.3277893066407	68.03891754150392	-762.7641601562501	-269.7292785644532	71.11382293701173	-722.2186279296876	-313.2274475097657	46.12791442871094	-678.2117309570314	
1250	6.245	-284.6889953613282	1699.082153320313	-949.7344360351565	-429.8666076660157	1569.8212890625	-999.1069946289065	-368.3885803222657	1602.12158203125	-850.7600097656252	-455.5484924316407	1464.119384765625	-949.6209106445315	-494.5357360839845	1139.539916992188	-942.2007446289065	-316.9973754882813	1392.30712890625	-951.887634277344	-359.8898010253907	1428.861328125	-1111.401611328125	-424.6608276367189	1282.294799804688	-1270.888793945313	-391.0264587402345	1245.16064453125	-1264.906005859375	-426.7904357910157	1223.563842773438	-1309.40673828125	-426.0726318359376	1139.759399414063	-1335.72802734375	-501.9519653320314	1131.18603515625	-1282.091674804688	-388.7571716308595	961.2879028320315	-1164.71435546875	-349.9605407714844	924.9478149414065	-1218.611206054688	-342.3169555664063	951.851745605469	-1124.74365234375	-350.0591735839844	1432.62939453125	-790.6030883789065	-409.1766357421876	1289.816040039063	-628.8088989257814	-382.0290832519532	1247.852294921875	-633.1989135742189	-419.8214416503907	1231.974365234375	-588.4907226562501	-423.4237670898439	1163.883666992188	-561.6629638671876	-498.7434082031251	1140.04296875	-592.7871704101564	-343.9954528808594	939.426452636719	-670.8732910156251	-387.0675659179689	963.8770751953127	-729.4722900390626	-327.1730041503907	960.9116821289065	-765.5452270507814	-333.2630004882813	953.978454589844	-1070.817016601563	-324.8878784179688	964.9812622070315	-819.1314086914065	-487.0031738281251	1036.255493164063	-943.7974243164065	-494.3226013183595	1003.576232910156	-969.9096679687502	-492.6505126953126	1006.334533691406	-913.2375488281252	-385.1336364746095	722.2696533203126	-1142.75732421875	-355.1280212402344	643.5811767578126	-1141.757446289063	-307.4057922363282	648.5259399414064	-1125.224243164063	-382.1182250976563	590.0668334960939	-1132.998046875	-384.920623779297	482.5154724121095	-1124.025146484375	-346.5726623535157	469.8451538085939	-1007.145385742188	-332.5752868652344	357.8966674804688	-1098.891967773438	-392.1419067382814	319.6143188476563	-1148.684692382813	-351.7126159667969	312.7762451171876	-1130.2607421875	-355.8439636230469	231.6114654541016	-1105.48046875	-436.8046264648439	92.06599426269533	-1125.396118164063	-398.8865661621095	101.6146469116211	-1047.162475585938	-481.3919067382814	45.26245117187501	-1077.4658203125	-269.9666748046876	58.70918273925783	-1087.251831054688	-276.5302734375001	65.1342010498047	-1135.681518554688	-321.6548767089844	45.52402496337891	-1181.452270507813	-389.9189758300782	779.2072753906252	-733.5806884765626	-350.5457763671876	727.2345581054689	-731.5571899414064	-319.4172363281251	732.9931640625001	-742.6730957031251	-375.9571228027344	645.5745849609376	-731.7762451171876	-382.1779785156251	491.0091247558595	-749.3447875976564	-339.1738281250001	471.0898742675782	-867.8784790039065	-329.3880615234376	338.5529479980469	-790.188171386719	-385.574920654297	267.4309387207032	-728.1655883789064	-346.5094299316407	259.3216247558594	-754.8756103515626	-353.1083374023438	210.7370758056641	-787.3975830078127	-427.3735351562501	92.31609344482423	-743.0097656250001	-383.9158630371094	109.1426849365235	-820.7947387695315	-461.3348693847657	45.54452514648438	-805.220397949219	-258.2185058593751	67.98958587646486	-763.2853393554689	-269.4659729003907	71.01202392578126	-722.6900024414064	-312.8472290039063	46.10315704345704	-678.6050415039064	
1251	6.25	-284.7818298339844	1698.634155273438	-950.2180175781252	-429.5890502929689	1569.981689453125	-999.532409667969	-367.7918090820313	1602.1044921875	-851.191101074219	-455.3856506347657	1464.098388671875	-950.2193603515627	-494.4323730468751	1139.599487304688	-942.6206665039065	-316.9191894531251	1392.2080078125	-952.3481445312502	-359.6901245117188	1428.79931640625	-1111.908447265625	-424.4776916503907	1282.254638671875	-1271.443603515625	-391.0989685058595	1244.87646484375	-1264.947998046875	-426.6744995117189	1223.389526367188	-1309.65478515625	-425.9754028320314	1139.672729492188	-1336.243286132813	-501.7745056152345	1131.16015625	-1282.595092773438	-388.5281372070314	961.4341430664065	-1165.01318359375	-349.7231140136719	925.042663574219	-1218.86669921875	-342.1745910644532	951.8931274414065	-1125.05419921875	-350.0724182128907	1432.657592773438	-791.0158691406252	-409.3847656250001	1289.9853515625	-629.2182006835939	-382.3168945312501	1248.051635742188	-633.5225219726564	-420.1948242187501	1232.250122070313	-588.9702148437501	-423.8211364746095	1164.160278320313	-562.0167846679689	-499.2417297363282	1140.33154296875	-593.3331298828126	-344.2523193359376	939.685974121094	-671.0694580078126	-387.3955383300782	964.0591430664065	-729.6777954101564	-327.1307678222657	961.0130615234377	-765.6287841796876	-333.1915588378907	954.005798339844	-1071.07177734375	-324.9066467285157	965.1306762695315	-819.245788574219	-486.8613281250001	1036.331909179688	-944.2291259765627	-494.1969299316407	1003.655517578125	-970.3376464843752	-492.6347045898439	1006.47705078125	-913.5745239257815	-385.143524169922	722.3247680664064	-1142.952392578125	-355.2629699707032	643.6007690429689	-1141.8056640625	-307.4964599609376	648.3867797851564	-1125.205688476563	-382.4113464355469	590.0889282226564	-1133.096313476563	-385.5218505859376	482.5819091796876	-1124.111083984375	-347.2051391601563	469.8196105957032	-1007.188171386719	-332.5323486328126	357.9834899902344	-1098.6650390625	-392.5207824707032	319.6108093261719	-1148.80615234375	-351.9487304687501	312.8677062988282	-1130.363647460938	-356.1005859375001	231.6918487548829	-1105.664672851563	-436.8059692382814	91.96823120117189	-1125.462280273438	-398.9954833984376	101.6733169555664	-1047.271850585938	-481.4920349121095	45.2652816772461	-1077.578125	-270.0263366699219	58.67765045166017	-1087.385131835938	-276.6218261718751	65.0529251098633	-1135.770385742188	-321.6663513183594	45.41765975952149	-1181.555541992188	-389.8778381347657	779.3038330078127	-733.7565307617189	-350.4627075195313	727.4801025390626	-731.7143554687501	-319.3339843750001	733.1500854492189	-742.8271484375001	-375.7506408691407	645.6922607421876	-731.8692626953126	-381.8168334960938	491.1927795410157	-749.3554077148439	-338.8444213867188	471.1499023437501	-867.9447021484377	-329.1098937988282	338.6213073730469	-790.2744750976565	-385.269012451172	267.6776428222657	-728.1874389648439	-346.2466125488282	259.3961791992188	-754.9593505859376	-352.9385681152344	210.8645477294922	-787.566833496094	-427.1956481933595	92.41155242919923	-743.0617675781251	-383.9902038574219	109.220687866211	-821.0117797851565	-461.3348388671876	45.64061355590821	-805.194274902344	-258.2178344726563	67.86204528808595	-763.8120117187501	-269.2063293457032	70.88177490234376	-723.1987304687501	-312.5624084472657	46.05695724487305	-678.8987426757814	
1252	6.255	-284.0762939453126	1698.46484375	-950.8701782226565	-429.2777099609376	1570.023071289063	-999.862731933594	-367.2276611328126	1602.038940429688	-851.745056152344	-455.2276611328126	1464.158569335938	-950.768005371094	-494.3574523925782	1139.6708984375	-943.0684814453127	-316.8112792968751	1392.21826171875	-952.7341918945315	-360.0126953125001	1428.987182617188	-1112.824951171875	-424.0336914062501	1282.170532226563	-1271.890380859375	-389.8237304687501	1244.73095703125	-1266.0068359375	-426.0268859863282	1223.401123046875	-1310.253051757813	-425.6468811035157	1139.621215820313	-1336.707641601563	-501.4675598144532	1131.113159179688	-1283.087280273438	-388.2147216796876	961.5445556640627	-1165.251220703125	-349.5774841308594	925.0488281250002	-1219.115844726563	-341.8970336914063	951.886901855469	-1125.305297851563	-350.2066650390626	1432.663940429688	-791.5064086914065	-409.6234436035157	1290.227416992188	-629.6689453125001	-382.5806579589844	1248.28955078125	-633.9265747070314	-420.5360412597657	1232.448974609375	-589.3458251953126	-424.2633666992189	1164.458740234375	-562.2855834960939	-499.7017211914064	1140.4755859375	-593.8207397460939	-344.5708007812501	939.9251098632815	-671.2297363281251	-387.5158081054689	964.2207641601565	-729.9274291992189	-327.2898254394532	961.1430664062502	-765.8876342773439	-332.8806152343751	953.9793701171877	-1071.188720703125	-325.1130065917969	965.2092895507815	-819.381774902344	-486.8524780273439	1036.4130859375	-944.609313964844	-494.0263061523439	1003.715698242188	-970.7728271484377	-492.6412048339845	1006.593078613281	-913.908386230469	-385.139129638672	722.3950195312501	-1143.096069335938	-355.3772277832032	643.7019042968751	-1141.9072265625	-308.4165954589844	648.5776977539064	-1125.554321289063	-382.6841125488282	590.1542968750001	-1133.163208007813	-386.0623168945314	482.6043090820314	-1124.361938476563	-347.7270812988282	469.7336425781251	-1007.108337402344	-333.0541381835938	358.0275878906251	-1098.67333984375	-392.791229248047	319.5710144042969	-1148.885498046875	-351.8715820312501	312.8659362792969	-1130.128173828125	-356.3321533203126	231.7418975830079	-1105.659912109375	-436.8624877929689	91.92611694335939	-1125.605224609375	-399.0786437988282	101.6520004272461	-1047.4052734375	-481.4912719726564	45.19537734985352	-1077.666870117188	-270.0476989746094	58.7223358154297	-1087.44189453125	-276.6435241699219	65.00672912597658	-1135.809204101563	-321.6589965820313	45.31578063964844	-1181.606201171875	-389.7639160156251	779.4968261718752	-733.8179931640626	-350.3560791015626	727.6315307617189	-731.7897949218751	-319.2037048339844	733.2963256835939	-742.9021606445314	-375.5666503906251	645.8267822265626	-731.9582519531251	-381.4380493164063	491.2984924316407	-749.3756713867189	-338.6751098632813	471.3176879882814	-867.9317016601565	-328.8568725585938	338.7595520019532	-790.386169433594	-385.0320739746095	267.8559875488282	-728.2667846679689	-346.0719299316407	259.4626159667969	-755.0565795898439	-352.7792663574219	211.0160522460938	-787.664978027344	-427.0350341796876	92.55511474609376	-743.1168823242189	-383.9561462402344	109.3297500610352	-821.1549072265627	-461.3489379882814	45.7121696472168	-805.114685058594	-258.3429870605469	67.66085815429689	-764.4517822265626	-268.9350280761719	70.84275817871095	-723.6403808593751	-312.2380981445313	46.04354095458985	-679.2080078125001	
